<svg width="125px" height="43px" viewBox="0 0 125 43" version="1.1" xmlns="http://www.w3.org/2000/svg" xmlns:xlink="http://www.w3.org/1999/xlink"><defs></defs><g id="Normal" stroke="none" stroke-width="1" fill="none" fill-rule="evenodd"><g id="Desktop-HD" transform="translate(-246.000000, -92.000000)" fill="#313048"><g id="On-White-Background" transform="translate(246.000000, 92.000000)"><path d="M19.5563236,23.0872419 L19.5563236,20.1136546 C19.5563236,18.7408356 20.6523174,17.6234993 21.9996858,17.6234993 C23.3476826,17.6234993 24.4436764,18.7408356 24.4436764,20.1136546 L24.4436764,23.0872419 L19.5563236,23.0872419 Z M21.9996858,14 C18.8644148,14 16.2865672,16.4651833 16.0257659,19.5924444 C16.0138256,19.6788859 16,19.764687 16,19.8543301 L16,28.1885705 C16,29.1887306 16.7962294,30 17.778476,30 C18.7600943,30 19.5563236,29.1887306 19.5563236,28.1885705 L19.5563236,26.7107412 L24.4436764,26.7107412 L24.4436764,28.1885705 C24.4436764,29.1887306 25.2392773,30 26.221524,30 C27.2037706,30 28,29.1887306 28,28.1885705 L28,19.8543301 C28,19.764687 27.9861744,19.6788859 27.9736057,19.5924444 C27.7128044,16.4651833 25.1355852,14 21.9996858,14 L21.9996858,14 Z" id="Fill-2"></path><path d="M21.5,39.3712458 C11.645486,39.3712458 3.62875421,31.354514 3.62875421,21.5 C3.62875421,11.645486 11.645486,3.62875421 21.5,3.62875421 C31.354514,3.62875421 39.3712458,11.645486 39.3712458,21.5 C39.3712458,31.354514 31.354514,39.3712458 21.5,39.3712458 M21.5,0 C9.64482985,0 0,9.64482985 0,21.5 C0,33.3551702 9.64482985,43 21.5,43 C33.3551702,43 43,33.3551702 43,21.5 C43,9.64482985 33.3551702,0 21.5,0" id="Fill-4"></path><path d="M64.5563236,23.0872419 L64.5563236,20.1136546 C64.5563236,18.7408356 65.6523174,17.6234993 66.9996858,17.6234993 C68.3476826,17.6234993 69.4436764,18.7408356 69.4436764,20.1136546 L69.4436764,23.0872419 L64.5563236,23.0872419 Z M66.9996858,14 C63.8644148,14 61.2865672,16.4651833 61.0257659,19.5924444 C61.0138256,19.6788859 61,19.764687 61,19.8543301 L61,28.1885705 C61,29.1887306 61.7962294,30 62.778476,30 C63.7600943,30 64.5563236,29.1887306 64.5563236,28.1885705 L64.5563236,26.7107412 L69.4436764,26.7107412 L69.4436764,28.1885705 C69.4436764,29.1887306 70.2392773,30 71.221524,30 C72.2037706,30 73,29.1887306 73,28.1885705 L73,19.8543301 C73,19.764687 72.9861744,19.6788859 72.9736057,19.5924444 C72.7128044,16.4651833 70.1355852,14 66.9996858,14 L66.9996858,14 Z" id="Fill-6"></path><path d="M104.836858,14 C103.146788,14 101.614879,14.6787258 100.5,15.774932 C99.385767,14.6787258 97.8532124,14 96.1631417,14 C92.9424531,14 90.29502,16.464543 90.0264679,19.5924444 C90.0142023,19.6782456 90,19.764687 90,19.8543301 L90,28.1879302 C90,29.1887306 90.8179219,30 91.826929,30 C92.8359361,30 93.6532124,29.1887306 93.6532124,28.1879302 L93.6532124,20.1130142 C93.6532124,18.7401953 94.7790655,17.6234993 96.1631417,17.6234993 C97.5478635,17.6234993 98.6737166,18.7401953 98.6737166,20.1130142 L98.6737166,24.5644309 C98.6737166,25.5652313 99.4909929,26.3765007 100.5,26.3765007 C101.509007,26.3765007 102.326929,25.5652313 102.326929,24.5644309 L102.326929,20.1130142 C102.326929,18.7401953 103.452782,17.6234993 104.836858,17.6234993 C106.220935,17.6234993 107.346788,18.7401953 107.346788,20.1130142 L107.346788,28.1879302 C107.346788,29.1887306 108.164709,30 109.173717,30 C110.182724,30 111,29.1887306 111,28.1879302 L111,19.8543301 C111,19.764687 110.986443,19.6782456 110.973532,19.5924444 C110.705626,16.464543 108.058192,14 104.836858,14" id="Fill-8"></path><path d="M86.0680555,24.506162 C85.1764383,24.00811 84.0342187,24.3026159 83.5185052,25.1625984 C83.060826,25.9258965 82.2094371,26.4004135 81.2960571,26.4004135 C79.8821316,26.4004135 78.7319982,25.2904508 78.7319982,23.9266916 L78.7319982,20.0764888 C78.7319982,20.0752167 78.7326577,20.0739445 78.7326577,20.0726723 C78.7326577,18.7089131 79.8827911,17.5995865 81.2967165,17.5995865 C82.1500839,17.5995865 82.9454169,18.007951 83.4241995,18.6911028 C83.7849352,19.206329 84.3731915,19.4836607 84.9719995,19.4836607 C85.3314161,19.4836607 85.6947897,19.3837958 86.0152971,19.175161 C86.8693239,18.6185895 87.0935471,17.4997217 86.516502,16.6759959 C85.3426273,15.0005566 83.3912255,14 81.2967165,14 C78.0283329,14 75.3356754,16.4152024 75.0309956,19.4919297 C75.0145086,19.5886141 75,19.6859346 75,19.7877077 L75,24.466725 C75,24.6798124 75.0455041,24.8820863 75.1160685,25.0716387 C75.6733292,27.8742148 78.2307933,30 81.2960571,30 C83.5363112,30 85.6262038,28.8372426 86.748639,26.965254 C87.265012,26.1046354 86.9603321,25.004214 86.0680555,24.506162" id="Fill-10"></path><path d="M122,20 L117,20 C117.188876,18.8688774 118.235509,18 119.499023,18 C120.341149,18 121.126612,18.3906298 121.599453,19.0447216 C121.808519,19.3331305 121.943337,19.6586553 122,20 M123.973763,16.6759959 C122.855145,15.0005566 120.995601,14 119.000314,14 C115.828594,14 113.231265,16.5048899 113.020738,19.6617635 C113.013197,19.7304604 113,19.797885 113,19.8684901 L113,24.5481434 C113,24.8070287 113.056559,25.0525563 113.154595,25.2751849 C113.762294,27.9759879 116.149725,30 119.000314,30 C119.002828,30 119.005342,29.9993639 119.007855,29.9993639 C121.139513,29.9961835 123.12663,28.8346983 124.195601,26.965254 C124.687667,26.1052715 124.397329,25.004214 123.547683,24.506162 C122.696779,24.00811 121.609584,24.3019798 121.117518,25.1619623 C120.680754,25.9252604 119.869442,26.3997774 119.000314,26.3997774 C118.999057,26.3997774 118.9978,26.4004135 118.996544,26.4004135 C117.650432,26.3985052 116.556324,25.2898147 116.556324,23.9273277 L116.556324,23.2899738 L123.221524,23.2899738 C124.203771,23.2899738 125,22.4840582 125,21.4898624 L125,19.4206886 C125,19.1567146 124.940927,18.9086428 124.840377,18.6828337 C124.675098,17.9704222 124.38476,17.2910869 123.973763,16.6759959" id="Fill-16"></path></g></g></g></svg>